<svg xmlns="http://www.w3.org/2000/svg" viewBox="0 0 86.3 85.6"><style>.st0{fill:#fbeac2}</style><path class="st0" d="M59.6 33.1c-20.3 4.1-29-7.9-33.1-12.7-2.4-1.1-.9 4.3-.9 4.6.1.3-.1.2-.2.2-.3 0-5.7-1.5-4.6.9 4.8 4.1 16.8 12.8 12.7 33.1-.1 5.1 11.2 1 9.1-16.1l-.4-1.4 1.4.4c17 2.1 21.1-9.2 16-9z"/><path class="st0" d="M48.4 47.9c-1.2 1.3-.5 4.1 1.8 6.3 2.2 2.2 5 3 6.3 1.8 1.3-1.2.5-4.1-1.7-6.3-2.4-2.3-5.2-3-6.4-1.8zM45 52.3c-.3-.2-.9-.3-1-.1-.2.2 0 .3.4 1.3.2.6 1 1.4.1 5-.9 2.9-.2 4.4-.2 4.4.7 1.1 1.5 2 2.4 2 1 0 2.1-1 3-2.3 1.6-3.1-1-8.3-4.7-10.3zM63.4 43.8s-1.5-.7-4.4.2c-3.6.9-4.4.1-5-.1-1-.3-1.1-.5-1.3-.4-.2.2-.1.7.1 1 2 3.7 7.2 6.3 10.3 4.6 1.4-.9 2.4-2 2.3-3-.1-.8-1-1.6-2-2.3zM30 43.9c-2-16-20-14-19 0 0 8 6 11 9 8 4-4-1-9-1-9-2-3 6-7 6 4 1 12-16 25-17 22-5-8-4-29 1-33C21.1 24.8 8.9 10.5.2 8.4c-.1-.1-.2 0-.2.1V83c0 10.9 34-14.1 30-39.1zM29.6 63.2c-.5 8.4-4.1 15.1-9.9 19.2-.1.1-.1.3 0 .4 3.3 3.9 9.5 1.9 12.1-4 1.7-3.7 2.4-11.1-1.7-15.7-.2-.2-.5-.1-.5.1zM44.6 30c-16-2-14-20 0-19 8 0 11 6 8 9-4 4-9-1-9-1-3-2-7 6 4 6 12 1 25-16 22-17-8-5-29-4-33 1C25.5 21.1 11.1 8.9 9 .2c0-.1 0-.2.1-.2h74.5c11 0-14 34-39 30zM63.8 29.6c8.4-.5 15.1-4.1 19.2-9.9.1-.1.3-.1.4 0 3.9 3.3 1.9 9.5-4 12.1-3.7 1.7-11.1 2.4-15.7-1.7-.2-.2-.1-.5.1-.5z"/></svg>